<?xml version="1.0" encoding="utf-8"?>
<!-- Generator: Adobe Illustrator 25.0.1, SVG Export Plug-In . SVG Version: 6.00 Build 0)  -->
<svg version="1.1" id="Layer_1" xmlns="http://www.w3.org/2000/svg" xmlns:xlink="http://www.w3.org/1999/xlink" x="0px" y="0px"
	 viewBox="0 0 145.8 154.8" style="enable-background:new 0 0 145.8 154.8;" xml:space="preserve">
<style type="text/css">
	.st0{fill:none;}
	.st1{fill:#D1D3D4;}
	.st2{fill:#C0C2C4;}
	.st3{fill:#FAA41A;}
	.st4{fill:#668EC9;}
	.st5{fill:#F89938;}
	.st6{fill:#231F20;}
	.st7{fill:#4B6B9C;}
	.st8{fill:#FFFFFF;}
	.st9{fill:#E4D65B;}
	.st10{fill:#EFE05E;}
	.st11{fill:none;stroke:#4D4D4F;stroke-width:0.7848;stroke-miterlimit:10;}
</style>
<g id="Layer_2_1_">
	<g id="Layer_1-2">
		<path class="st0" d="M72.3,68.3c0.3,0.4,0.5,0.8,0.8,1.2C72.8,69.1,72.5,68.7,72.3,68.3z"/>
		<path class="st1" d="M116.2,49.7c-3.9-1.8-7.9-3.1-12.1-3.9c-2.4-0.5-4.8-0.7-7.2-0.8l0,0c-2.6-0.1-5.2,0.1-7.8,0.5l0,0
			c-4.1,0.7-8.2,2.1-11.9,4l0,0c-0.2,0.1-0.5,0.3-0.7,0.4l0,0l-0.1,0.1l-0.2,0.1L76,50.1c-0.3,0.2-0.9,0.5-1.6,0.9l-0.3,0.2
			c-2.4,1.6-4.6,3.5-6.6,5.5l0,0c-0.4,0.4-0.7,0.7-1.1,1.1c-4.9,5.2-10.1,12-12.3,16.6c3,10.2,13.7,16,23.8,13
			c4.2-1.2,7.8-3.9,10.3-7.5L88,79.9c-1-0.3-2.1-0.8-3.3-1.3l-0.5-0.2h0c-0.2-0.1-0.3-0.2-0.5-0.3l-0.4-0.2L83,77.7l-0.4-0.2
			c-0.2-0.1-0.4-0.2-0.5-0.3c-0.2-0.1-0.4-0.2-0.6-0.3c-0.2-0.1-0.4-0.2-0.6-0.3c-0.6-0.4-1.2-0.7-1.7-1.1l-0.5-0.3l-0.4-0.3
			c-0.1-0.1-0.3-0.2-0.4-0.3c-0.6-0.5-1.2-1-1.8-1.5l-0.4-0.4c-0.2-0.2-0.4-0.4-0.6-0.6l-0.5-0.5l-0.5-0.6c-0.1-0.1-0.2-0.3-0.4-0.4
			c-0.2-0.3-0.4-0.6-0.7-0.9s-0.6-0.8-0.8-1.2c-0.1-0.2-0.3-0.4-0.4-0.7c0,0,0-0.1,0-0.1c-0.1-0.2,0.1-0.4,0.2-0.4
			c0.1,0,0.1,0,0.2,0l0.1,0l0.3,0.1c0.3,0.2,0.7,0.4,1.1,0.6l0.9,0.4c1.7,0.8,3.4,1.6,5.2,2.2l1,0.3c0.4,0.1,0.9,0.3,1.3,0.4
			c0.3,0.1,0.6,0.2,0.9,0.2c0.6,0.1,1.1,0.3,1.7,0.4l0.8,0.1c1.3,0.2,2.7,0.3,4,0.3l0.6,0l0.6-0.1l0.6-0.1c0-0.2,0.1-0.4,0.1-0.6
			l0,0c0.9-3.9,3-7.5,6-10.2c3.3-2.8,7.2-4.8,11.5-5.5c2.1-0.4,4.2-0.5,6.3-0.4c0.3,0,0.6-0.2,0.7-0.5c0.2-1.5,0.4-3,0.6-4.6
			C116.6,50,116.4,49.8,116.2,49.7z M84.5,54c-0.5,0-0.9-0.4-0.9-0.9c0-0.5,0.4-0.9,0.9-0.9c0.5,0,0.9,0.4,0.9,0.9c0,0,0,0,0,0
			C85.4,53.6,85,54,84.5,54z"/>
		<path class="st0" d="M67.5,56.8L67.5,56.8"/>
		<path class="st0" d="M74.5,51.1L74.5,51.1"/>
		<polyline class="st0" points="76.7,49.8 76.7,49.8 76.7,49.8 		"/>
		<path class="st2" d="M74.4,51.1l-0.3,0.2c-2.4,1.6-4.6,3.5-6.6,5.5c-0.7-1.2-0.8-3.7,0-5.4v0c0.1-0.1,0.3-0.4,0.3-0.5
			c0.2-0.2,0.3-0.4,0.6-0.6l0,0c0.1-0.1,0.2-0.2,0.3-0.3c0.1-0.1,0.2-0.1,0.3-0.2l0,0c0.7-0.3,1.6-0.4,2.4-0.3h0.1
			c0.2,0,0.5,0.1,0.7,0.1l0.3,0.1c0.3,0.1,0.5,0.2,0.8,0.3l0,0l0.2,0.1c0.1,0.1,0.2,0.1,0.2,0.2l0.1,0.1
			C74,50.6,74.2,50.8,74.4,51.1z"/>
		<line class="st0" x1="67.6" y1="51.1" x2="67.6" y2="51.1"/>
		<polyline class="st0" points="76.7,49.8 76.7,49.8 76.7,49.8 		"/>
		<path class="st3" d="M110.3,74.4c-1.5,12.5-11.5,34.5-31.9,54.5c-0.3,0.3-0.8,0.4-1.2,0.1c-23.6-14.4-37.3-36-41-48.1
			c-1.9-6.2-2.6-12.7-1.9-19.1c0.6-4.2,2-8.3,4-12.1c8.4-15,29.3-17.2,31.7-17.4l-0.2,0.2c0,0-0.1,0.1-0.2,0.2L52.4,49.3
			c-0.2,0.2-0.2,0.6,0,0.8c0.1,0.1,0.2,0.2,0.3,0.2c4.1,0.7,8.2,1,12.3,0.9h0.1c-9.8,4-14.5,15.3-10.5,25.1S70,90.8,79.8,86.8
			c3.4-1.4,6.3-3.8,8.5-6.8l0.1-0.2l0,0c0.1-0.1,0.1-0.2,0.2-0.3c0.1-0.1,0.1-0.2,0.2-0.3c0.1-0.1,0.2-0.3,0.3-0.4l0.1-0.2l0.3-0.6
			c0,0,0.1-0.1,0.1-0.2c0.1-0.2,0.2-0.3,0.2-0.5c0.1-0.1,0.1-0.2,0.2-0.4c0.1-0.1,0.2-0.4,0.2-0.6c0,0,0-0.1,0.1-0.1
			c0.1-0.2,0.2-0.4,0.2-0.6c0,0,0-0.1,0-0.1c0.1-0.2,0.1-0.4,0.2-0.7l0,0c0.1-0.2,0.2-0.5,0.2-0.7v0c0.2-0.7,0.3-1.4,0.4-2.1
			c0-0.2,0.1-0.4,0.1-0.6l0,0c0.9-3.9,3-7.5,5.9-10.2c3.3-2.8,7.2-4.8,11.5-5.5C110.6,61.9,111.1,68.2,110.3,74.4z"/>
		<path class="st0" d="M88.6,79.5c-0.1,0.1-0.1,0.2-0.2,0.3l0,0C88.5,79.7,88.5,79.6,88.6,79.5z"/>
		<path class="st4" d="M96.8,45c-2.6-0.1-5.2,0.1-7.8,0.5l0,0c-4.1,0.7-8.2,2.1-11.9,4l0,0c-0.2,0.1-0.5,0.3-0.7,0.4l0,0l-0.1,0.1
			l-0.2,0.1L76,50.1c-0.3,0.2-0.9,0.5-1.6,0.9c-0.2-0.2-0.4-0.5-0.7-0.7l-0.1-0.1c-0.1-0.1-0.1-0.1-0.2-0.2l-0.2-0.1l0,0
			c-0.3-0.2-0.6-0.4-0.9-0.6c0.2-3,0.4-5.6,0.5-8.6c-0.6-1.5,13.7-6.9,14.3-5.4c2.4,2.4,4.7,4.4,7.1,6.8l0.3,0.3L96.8,45z"/>
		<path class="st5" d="M104,45.8c-2.4-0.5-4.8-0.7-7.2-0.8l0,0l-2.2-2.3l-0.3-0.3c1.3-0.9,2.6-1.8,3.7-2.8c1.7,1.3,3.3,2.8,4.7,4.5
			C103.2,44.6,103.6,45.2,104,45.8z"/>
		<path class="st6" d="M91.3,72.6c-0.1,0.5-0.2,1.1-0.3,1.6v0c-0.1,0.2-0.1,0.5-0.2,0.7l0,0c-0.1,0.2-0.1,0.4-0.2,0.7
			c0,0,0,0.1,0,0.1c-0.1,0.2-0.2,0.4-0.2,0.6c0,0,0,0.1-0.1,0.1c-0.1,0.2-0.2,0.4-0.2,0.6c-0.1,0.2-0.1,0.2-0.2,0.4
			s-0.2,0.3-0.2,0.5c0,0.1,0,0.1-0.1,0.2l-0.3,0.6L89,78.8c-0.1,0.1-0.2,0.3-0.3,0.4c-0.1,0.1-0.1,0.2-0.2,0.3
			c-0.1,0.1-0.1,0.2-0.2,0.3c-0.1,0.1-0.3,0.2-0.4,0.1c-1-0.3-2.1-0.8-3.3-1.3l-0.5-0.3h0l-0.5-0.3l-0.4-0.2L83,77.7l-0.4-0.2
			L82,77.2c-0.2-0.1-0.4-0.2-0.6-0.3c-0.2-0.1-0.4-0.2-0.6-0.3c-0.6-0.4-1.2-0.7-1.7-1.1l-0.5-0.3l-0.4-0.3
			c-0.1-0.1-0.3-0.2-0.4-0.3c-0.6-0.5-1.2-1-1.8-1.5l-0.4-0.4c-0.2-0.2-0.4-0.4-0.6-0.6l-0.5-0.5l-0.5-0.6c-0.1-0.1-0.2-0.3-0.4-0.4
			c-0.2-0.3-0.4-0.6-0.7-0.9s-0.5-0.8-0.8-1.2c-0.1-0.2-0.3-0.4-0.4-0.7c0,0,0-0.1,0-0.1c-0.1-0.2,0.1-0.4,0.3-0.4
			c0.1,0,0.1,0,0.2,0l0.1,0l0.3,0.1c0.3,0.2,0.7,0.4,1.1,0.6l0.9,0.4c1.7,0.8,3.4,1.6,5.2,2.2l1,0.3c0.4,0.1,0.9,0.3,1.3,0.4
			c0.3,0.1,0.6,0.2,0.9,0.2c0.6,0.1,1.1,0.3,1.7,0.4l0.8,0.1c1.3,0.2,2.7,0.3,4,0.3l0.6,0l0.6-0.1h0.1c0.2,0,0.4,0.1,0.4,0.3
			C91.3,72.5,91.3,72.5,91.3,72.6z"/>
		<path class="st0" d="M72.3,68.3c0.3,0.4,0.5,0.8,0.8,1.2C72.8,69.1,72.5,68.7,72.3,68.3z"/>
		<path class="st0" d="M88.6,79.5c-0.1,0.1-0.1,0.2-0.2,0.3l0,0C88.5,79.7,88.5,79.6,88.6,79.5z"/>
		<path class="st7" d="M102,36c1.1-1.1,2-2.1,2.9-3.1c0.2-0.2,0.2-0.6-0.1-0.8c-0.1-0.1-0.2-0.1-0.3-0.1l-9.6-2L102,36z"/>
		<path class="st8" d="M67.6,51c-0.1,0.1-0.1,0.2-0.1,0.3v0c-0.8,1.7-0.7,4.3,0,5.4l0,0c-0.4,0.4-0.7,0.7-1.1,1.1
			c-4.9,5.2-10.1,12-12.3,16.6c-2.8-9.4,2-19.5,11.1-23.3h-0.1C65.8,51.2,66.8,51.1,67.6,51z"/>
		<path class="st9" d="M121.4,38.3c0,0.3-0.1,0.5-0.2,0.8c-0.4,0.9-1.5,1.3-2.4,0.8c-0.9-0.4-1.3-1.5-0.8-2.4c0.3-0.6,0.9-1,1.6-1
			c0.3,0,0.7,0.1,1,0.3C121.1,37.1,121.4,37.6,121.4,38.3z"/>
		<path class="st10" d="M130,38.2c-0.4,0.9,1.5,2.5,1.3,2.8c-0.2,0.3-1.5-0.8-2.6-1.3c-2.7-1.3-5.5-1-7.5-0.7
			c0.1-0.2,0.2-0.5,0.2-0.8c0-0.6-0.3-1.2-0.9-1.5c2.7-1.9,6.4-1.3,9.8-1.6c0.1,0,0.4,0.1,0.5,0.2c0,0.1,0,0.2-1.5,1.2
			c0,0-0.1,0.1,0,0.1c0,0,0,0,0,0c2.5,0.5,2.6,0.6,2.6,0.7C131.9,37.6,130.3,37.5,130,38.2z"/>
		<path class="st0" d="M91.5,72L91.5,72"/>
		<path class="st6" d="M85.4,53.1c0,0.5-0.4,0.9-0.9,0.9s-0.9-0.4-0.9-0.9s0.4-0.9,0.9-0.9C85,52.2,85.4,52.6,85.4,53.1z"/>
		<path class="st11" d="M88.7,29.3c1-1.5,2.7-3.8,3.8-3.6c0.9,0.2,2.1,1.8,2.5,2.2c9.1,8.5,9.5,8.5,10.6,9c1.1,0.5,9.4,2.1,12.2,1.6
			"/>
		<path class="st7" d="M102,36c-1.2,1.2-2.5,2.4-4,3.6c-1.2,0.9-2.4,1.9-3.7,2.8c-2.4-2.4-4.7-4.4-7.1-6.8
			c-0.6-1.5-14.9,3.8-14.3,5.4c-0.1,3-0.4,5.6-0.5,8.6c0.3,0.2,0.6,0.4,0.9,0.6c-0.2-0.1-0.5-0.3-0.8-0.3l-0.3-0.1
			c-0.2-0.1-0.5-0.1-0.7-0.1h-0.1c-0.8-0.1-1.6,0-2.3,0.3l0,0c-0.1,0.1-0.2,0.1-0.3,0.2c-0.1,0.1-0.2,0.2-0.3,0.3l0,0
			c-0.2,0.2-0.4,0.4-0.6,0.6c-0.1,0.1-0.2,0.3-0.3,0.5c0-0.1,0.1-0.2,0.1-0.3c-0.8,0.1-1.8,0.2-2.6,0.2c-4.1,0.1-8.2-0.2-12.3-0.9
			c-0.3-0.1-0.5-0.4-0.5-0.7c0-0.1,0.1-0.2,0.2-0.3l17.3-16.6c0-0.1,0.1-0.1,0.2-0.2l0.2-0.2l0,0c2-2,4-3.9,6-5.8
			c0.3-0.3,0.8-0.4,1.2-0.3l11.9,2.5l0,0c1.9,0.4,3.9,0.8,5.8,1.2L102,36z"/>
	</g>
</g>
</svg>
