<svg xmlns="http://www.w3.org/2000/svg" viewBox="0 0 176.55 156.03"><defs><style>.cls-1{fill:#b0b0b0;}.cls-2{fill:#c6c6c5;}.cls-3{fill:#b77d83;}.cls-4{fill:#f2da91;}.cls-15,.cls-16,.cls-5,.cls-9{fill:none;}.cls-5{stroke:#282972;}.cls-15,.cls-16,.cls-5{stroke-miterlimit:10;stroke-width:0.5px;}.cls-6{fill:#d2a363;}.cls-7{fill:#534a00;}.cls-8{fill:#dfe2cc;}.cls-10{fill:#f6f8df;}.cls-11{fill:#e7e9d3;}.cls-12{fill:#d0ecef;opacity:0.46;}.cls-13{fill:#e0ad69;}.cls-14{fill:#989897;}.cls-15{stroke:#ae8752;}.cls-16{stroke:#7c6024;}</style></defs><g id="Layer_2" data-name="Layer 2"><g id="Layer_1-2" data-name="Layer 1"><path class="cls-1" d="M67.91,111.75a2.61,2.61,0,0,1-1.43,1.43,3.11,3.11,0,0,1-1,.22,2.56,2.56,0,0,1,.22-1.46A3,3,0,0,1,68,110.45,2.46,2.46,0,0,1,67.91,111.75Z"/><path class="cls-1" d="M70.76,120a6.93,6.93,0,0,1-1.2,2.29c-.52.65-.94,1.16-1.53,1.18-.19,0-.15,0-1.53-.47a2.36,2.36,0,0,0-.88-.14,2.66,2.66,0,0,0-.77.19c-1,.35-1.07.42-1.3.42a1.63,1.63,0,0,1-1.08-.49,6.74,6.74,0,0,1-2.15-4.28c-.16-1.25-.39-2.93.67-4.12a2.9,2.9,0,0,1,1.85-1,5.52,5.52,0,0,1,1.72.32c.58.18.68.28,1,.27.6,0,.75-.33,1.38-.51a3.21,3.21,0,0,1,2.07.19,3.64,3.64,0,0,1,1.42,1,3.2,3.2,0,0,0-.76.69,2.92,2.92,0,0,0-.71,2.16,2.76,2.76,0,0,0,.91,1.75A2.86,2.86,0,0,0,70.76,120Z"/><path class="cls-1" d="M111.54,79.65H19.4a8.64,8.64,0,0,0-8.64,8.64v57.36a8.64,8.64,0,0,0,8.64,8.65h92.14a8.64,8.64,0,0,0,8.64-8.65V88.29A8.64,8.64,0,0,0,111.54,79.65ZM65.67,111.94A3,3,0,0,1,68,110.45a2.46,2.46,0,0,1-.1,1.3,2.61,2.61,0,0,1-1.43,1.43,3.11,3.11,0,0,1-1,.22A2.56,2.56,0,0,1,65.67,111.94Zm3.89,10.37c-.52.65-.94,1.16-1.53,1.18-.19,0-.15,0-1.53-.47a2.36,2.36,0,0,0-.88-.14,2.66,2.66,0,0,0-.77.19c-1,.35-1.07.42-1.3.42a1.63,1.63,0,0,1-1.08-.49,6.74,6.74,0,0,1-2.15-4.28c-.16-1.25-.39-2.93.67-4.12a2.9,2.9,0,0,1,1.85-1,5.52,5.52,0,0,1,1.72.32c.58.18.68.28,1,.27.6,0,.75-.33,1.38-.51a3.21,3.21,0,0,1,2.07.19,3.64,3.64,0,0,1,1.42,1,3.2,3.2,0,0,0-.76.69,2.92,2.92,0,0,0-.71,2.16,2.76,2.76,0,0,0,.91,1.75,2.86,2.86,0,0,0,.88.52A6.93,6.93,0,0,1,69.56,122.31Z"/><path class="cls-1" d="M65.45,113.4a2.56,2.56,0,0,1,.22-1.46A3,3,0,0,1,68,110.45a2.46,2.46,0,0,1-.1,1.3,2.61,2.61,0,0,1-1.43,1.43A3.11,3.11,0,0,1,65.45,113.4Z"/><path class="cls-1" d="M70.76,120a6.93,6.93,0,0,1-1.2,2.29c-.52.65-.94,1.16-1.53,1.18-.19,0-.15,0-1.53-.47a2.36,2.36,0,0,0-.88-.14,2.66,2.66,0,0,0-.77.19c-1,.35-1.07.42-1.3.42a1.63,1.63,0,0,1-1.08-.49,6.74,6.74,0,0,1-2.15-4.28c-.16-1.25-.39-2.93.67-4.12a2.9,2.9,0,0,1,1.85-1,5.52,5.52,0,0,1,1.72.32c.58.18.68.28,1,.27.6,0,.75-.33,1.38-.51a3.21,3.21,0,0,1,2.07.19,3.64,3.64,0,0,1,1.42,1,3.2,3.2,0,0,0-.76.69,2.92,2.92,0,0,0-.71,2.16,2.76,2.76,0,0,0,.91,1.75A2.86,2.86,0,0,0,70.76,120Z"/><path class="cls-2" d="M65.4,113.41a2.56,2.56,0,0,1,.22-1.46A3,3,0,0,1,68,110.46a2.46,2.46,0,0,1-.1,1.3,2.61,2.61,0,0,1-1.43,1.43A3.11,3.11,0,0,1,65.4,113.41Z"/><path class="cls-2" d="M70.71,120a6.93,6.93,0,0,1-1.2,2.29c-.52.65-.94,1.16-1.53,1.18-.19,0-.15,0-1.53-.47a2.36,2.36,0,0,0-.88-.14,2.66,2.66,0,0,0-.77.19c-1,.35-1.07.42-1.3.42a1.63,1.63,0,0,1-1.08-.49,6.74,6.74,0,0,1-2.15-4.28c-.16-1.25-.39-2.93.67-4.12a2.9,2.9,0,0,1,1.85-1,5.52,5.52,0,0,1,1.72.32c.58.18.68.28,1,.27.6,0,.75-.33,1.38-.51a3.21,3.21,0,0,1,2.07.19,3.64,3.64,0,0,1,1.42,1,3.2,3.2,0,0,0-.76.69,2.92,2.92,0,0,0-.71,2.16,2.76,2.76,0,0,0,.91,1.75A2.86,2.86,0,0,0,70.71,120Z"/></g><g id="laptop_layer" data-name="laptop layer"><path class="cls-3" d="M13.68,152.13A9.19,9.19,0,0,1,10.76,146V125.72a60,60,0,0,0-5.3,7.93C2.81,138.36,1.11,146,0,152.05"/><path class="cls-4" d="M96.15,58.1c.12-.23,2.21-3.8,0-7.09a6.36,6.36,0,0,0-2.84-2.32c-.06-2.66-.21-5-.38-6.88a50.85,50.85,0,0,1-10.67-3.35h0c-.18-.09-.39-.19-.63-.29l0,0a50.27,50.27,0,0,1-7.51-4.22A51.47,51.47,0,0,1,57.4,15.07a70.92,70.92,0,0,1-8.12,11.54A71.26,71.26,0,0,1,32.66,40.69a46,46,0,0,0,0,8.48,5.36,5.36,0,0,0-2.51,1.41c-2.14,2.16-1.63,5.47-.64,7.4,1.81,3.55,5.94,3.85,6.29,3.87h0A51.79,51.79,0,0,0,38,66.59a69.44,69.44,0,0,0,6.05,10H25.13c.11-12.39.18-20.46.21-24.67.14-17.28.14-23.21,3.66-31,1.7-3.74,5.06-10.89,13-15.77A31.53,31.53,0,0,1,55.75.71C58.37.42,65.33-.54,69.83.42a36.79,36.79,0,0,1,16.89,9c10.11,8.94,13.13,20.43,14.08,25.06q1.47,21.07,2.93,42.13l-18.38.23c2.47-3.76,4.16-9.41,7.16-15.51l.14-.33A6.62,6.62,0,0,0,96.15,58.1Z"/><path class="cls-3" d="M134.54,152.05c-1.47-7.08-3.81-15.77-6.35-20.68a40.51,40.51,0,0,0-8-10.68V146a9.19,9.19,0,0,1-2.92,6.17"/><path class="cls-5" d="M56,56.4a7.2,7.2,0,0,0,4.44,1.69,7.47,7.47,0,0,0,5.71-2.75"/><path class="cls-6" d="M35.82,61.75c-.35,0-4.48-.32-6.29-3.87-1-1.93-1.5-5.24.64-7.4a5.36,5.36,0,0,1,2.51-1.41c.12,1.24.3,2.55.55,3.91A45.42,45.42,0,0,0,35.82,61.75Z"/><path class="cls-7" d="M49.42,46.31a1,1,0,0,1-2.08,0,1,1,0,0,1,2.08,0Z"/><path class="cls-7" d="M73.33,46.31a1,1,0,1,1-1-1A1,1,0,0,1,73.33,46.31Z"/><path class="cls-5" d="M53.21,69.3A15.26,15.26,0,0,0,71,68.66"/><path class="cls-5" d="M53.64,38.64A9.67,9.67,0,0,0,41.37,39.7"/><path class="cls-8" d="M170,125.51l-.09.48h0c-.78,2.06-6.52,3.66-13.47,3.66-7.2,0-13.08-1.71-13.54-3.88l0-.27c0-1.77,3.62-3.27,8.72-3.87a14.47,14.47,0,0,1-3.2,2.9,10.57,10.57,0,0,0,7.13-2.75,5,5,0,0,0,.39-.41h.53C163.89,121.37,170,123.22,170,125.51Z"/><path class="cls-9" d="M170,125.51a1.36,1.36,0,0,1-.09.48"/><path class="cls-10" d="M169.87,126c-.35,1.82-.71,3.7-1.07,5.62-.2,1-.4,2-.59,3.08-.6,3.15-1.2,6.35-1.8,9.48-.21,1.08-.41,2.16-.61,3.23-.32,1.66-.63,3.3-.94,4.88a2.7,2.7,0,0,1-1.47,1.92,16.74,16.74,0,0,1-7.77,1.82,21.17,21.17,0,0,1-8.12-1.9,2.46,2.46,0,0,1-1.42-1.94q-1.61-13.2-3.22-26.41c.46,2.17,6.34,3.88,13.54,3.88C163.35,129.66,169.09,128.06,169.87,126Z"/><path class="cls-11" d="M173.12,142.24a17,17,0,0,1-7.32,5.17c.2-1.07.4-2.15.61-3.23a22.69,22.69,0,0,0,2.49-1.61c3.37-2.52,4.23-4.65,4.42-5.15s1-2.58.13-3.44c-.24-.24-.63-.41-2.31-.33a13.22,13.22,0,0,0-2.93,1c.19-1,.39-2.06.59-3.08a6.09,6.09,0,0,1,2.54-.61c1.54,0,3.72.52,4.69,2.05C178,136.17,173.77,141.43,173.12,142.24Z"/><path class="cls-12" d="M155.87,121.38a5,5,0,0,1-.39.41,10.57,10.57,0,0,1-7.13,2.75,14.47,14.47,0,0,0,3.2-2.9,10.89,10.89,0,0,0,1.92-3.47c2-6.12-3.14-12.21-4-13.51-2.73-4.16-4.13-4.79-4.13-7.51,0-2.53,2.08-4.83,4.26-7.25a26,26,0,0,1,3.5-3.25,11.24,11.24,0,0,0-2.88,5c-.91,3.55.36,6.62,1.38,9,2.55,6,5.05,5.59,6.25,9.88C158,110.91,159.62,117.22,155.87,121.38Z"/><path class="cls-12" d="M161.35,117.43c2.5-1.88,3.34-6.63,3.62-7.59,1.41-4.75-2.21-9.49-2.81-10.5-1.91-3.23-2.89-3.72-2.89-5.83s1.45-3.76,3-5.64a18.79,18.79,0,0,1,2.46-2.53,9,9,0,0,0-2,3.89,11.6,11.6,0,0,0,1,7c1.79,4.63,3.55,4.35,4.39,7.68.07.3,1.32,5.52-1.67,8.75C164.56,114.62,162.16,117.41,161.35,117.43Z"/><path class="cls-13" d="M93.14,48.6a48.22,48.22,0,0,0-.38-6.88,50.85,50.85,0,0,1-10.67-3.35h0l-.63-.29,0,0a50.27,50.27,0,0,1-7.51-4.22A51.47,51.47,0,0,1,57.24,15a70.92,70.92,0,0,1-8.12,11.54A71.26,71.26,0,0,1,32.5,40.6a46,46,0,0,0,0,8.48c.12,1.24.3,2.55.55,3.91a45.42,45.42,0,0,0,2.59,8.77h0a51.79,51.79,0,0,0,2.18,4.74,69.44,69.44,0,0,0,6,10L85,79.9a61.68,61.68,0,0,0,7.76-18.67h0c.1-1.65.18-3.44.28-5.42C93.17,53.2,93.12,50.78,93.14,48.6ZM48.38,47.36a1,1,0,1,1,1-1A1,1,0,0,1,48.38,47.36Zm23.91,0a1,1,0,1,1,1-1A1,1,0,0,1,72.29,47.36Z"/><path class="cls-6" d="M96.3,58.1a7.6,7.6,0,0,1-3.79,3.13c0-1.52.34-3.18.47-5.44.14-2.57-.15-5-.06-7.19a7,7,0,0,1,3.16,2.31C98.42,54.2,96.43,57.87,96.3,58.1Z"/><path class="cls-14" d="M120.18,85.17V88.6A8.64,8.64,0,0,0,111.54,80H19.4a8.64,8.64,0,0,0-8.64,8.65V85.17a8.64,8.64,0,0,1,8.64-8.65h92.14A8.64,8.64,0,0,1,120.18,85.17Z"/><path class="cls-15" d="M56.77,57.78a7.2,7.2,0,0,0,4.44,1.69,7.53,7.53,0,0,0,5.7-2.75"/><path class="cls-15" d="M54,70.67A15.28,15.28,0,0,0,71.78,70"/><path class="cls-16" d="M53.64,38.64a9.64,9.64,0,0,0-12.26,1"/><path class="cls-16" d="M80.9,39.12a9.67,9.67,0,0,0-12.31.08"/></g></g></svg>