<?xml version="1.0" encoding="utf-8"?>
<!-- Generator: Adobe Illustrator 25.0.1, SVG Export Plug-In . SVG Version: 6.00 Build 0)  -->
<svg version="1.1" id="Layer_1" xmlns="http://www.w3.org/2000/svg" xmlns:xlink="http://www.w3.org/1999/xlink" x="0px" y="0px"
	 viewBox="0 0 401.7 158.3" style="enable-background:new 0 0 401.7 158.3;" xml:space="preserve">
<style type="text/css">
	.st0{fill:none;stroke:#C9B0CE;stroke-width:6.677;stroke-linecap:round;stroke-miterlimit:10;}
	.st1{fill:#C9B0CE;}
	.st2{font-family:'Shelby-Bold';}
	.st3{font-size:116.4278px;}
	.st4{letter-spacing:1;}
	.st5{letter-spacing:-1;}
	.st6{letter-spacing:3;}
	.st7{fill:none;stroke:#E3C3D2;stroke-width:6.677;stroke-linecap:round;stroke-miterlimit:10;}
	.st8{fill:#D9C3C6;}
	.st9{fill:#E3C3D2;}
	.st10{fill:#999B9E;}
</style>
<g id="Layer_2_1_">
	<g id="Layer_1-2">
		<path class="st0" d="M38.6,28.1c-3.5,0.6-6.9,1.6-10.2,2.7C16.2,35.1,8.2,42.2,8.2,50.2c0,7.8,7.6,13.8,19.2,18.1
			c0.3,0.1,0.8,0.3,1.1,0.4"/>
		<path class="st0" d="M28.3,69c-0.3,0.1-1,0.3-1.3,0.5c-11.7,4.3-18.8,11.1-18.8,19c0,8.1,8,15.2,20.1,19.4
			c3.3,1.2,6.7,2.1,10.2,2.7"/>
		<text transform="matrix(1 0 0 1 128.064 89.6426)" class="st1 st2 st3">m</text>
		<text transform="matrix(1 0 0 1 182.3193 89.6426)" class="st1 st2 st3 st4">i</text>
		<text transform="matrix(1 0 0 1 203.1514 89.6426)" class="st1 st2 st3 st5">l</text>
		<text transform="matrix(1 0 0 1 226.2061 89.6426)" class="st1 st2 st3 st6">y</text>
		<text transform="matrix(1 0 0 1 262.6436 89.6426)" class="st1 st2 st3 st5">p</text>
		<text transform="matrix(1 0 0 1 292.4512 89.6426)" class="st1 st2 st3">hee</text>
		<path class="st7" d="M89.9,22.7l34.8,9.8c1.1,0.3,1.7,1.4,1.4,2.5c-0.1,0.4-0.3,0.7-0.6,1l-15.7,13.3c-1.2,1-1.9,2.5-1.9,4v36
			c0,1.8,0.9,3.4,2.4,4.4l14.3,9.5c0.9,0.6,1.2,1.9,0.6,2.8c-0.3,0.4-0.7,0.7-1.2,0.8l-34.1,9.2"/>
		<path class="st8" d="M104.1,34.4l1.1,5.5c0.1,0.5,0.6,0.8,1,0.7c0.1,0,0.3-0.1,0.4-0.2l4.5-3.7c0.4-0.3,0.4-0.9,0.1-1.3
			c-0.1-0.1-0.3-0.2-0.4-0.3l-5.6-1.8c-0.5-0.2-1,0.1-1.1,0.6C104.1,34.1,104,34.2,104.1,34.4z"/>
		<path class="st8" d="M103.5,98.2l-1.4,5.4c-0.1,0.5,0.2,1,0.6,1.1c0.2,0,0.3,0,0.5,0l5.7-1.4c0.5-0.1,0.8-0.6,0.7-1.1
			c0-0.2-0.1-0.3-0.3-0.4l-4.2-4c-0.3-0.4-0.9-0.4-1.3,0C103.6,97.9,103.5,98.1,103.5,98.2z"/>
		<ellipse class="st9" cx="49.2" cy="69.1" rx="4.1" ry="8.2"/>
		<circle class="st10" cx="72.2" cy="48.2" r="5.6"/>
		<circle class="st10" cx="72.2" cy="84.5" r="5.6"/>
	</g>
</g>
</svg>
